<?xml version="1.0" encoding="UTF-8"?> <svg xmlns="http://www.w3.org/2000/svg" width="300" height="284" viewBox="0 0 300 284" fill="none"><rect x="0.5" y="1.46631" width="299" height="281.983" rx="23.5" fill="white"></rect><path d="M97.2869 134.24C96.8554 131.061 95.1059 128.304 91.9285 125.808L90.1005 124.577L88.8767 126.428C87.3154 128.812 86.5309 132.126 86.7898 135.297C86.9075 136.41 87.2684 138.412 88.3981 140.161C87.2684 140.78 85.0403 141.631 82.0747 141.567H53.698H25.3213L25.2115 142.227C24.678 145.413 24.6859 155.363 31.0641 163.008C35.9126 168.817 43.1774 171.765 52.6546 171.765C73.2095 171.765 88.4216 162.181 95.5452 144.754C98.346 144.81 104.379 144.77 107.478 138.778C107.556 138.643 107.745 138.277 108.286 137.141L108.584 136.521L106.843 135.345C104.96 134.065 100.629 133.596 97.2947 134.24H97.2869ZM70.6989 112.966H62.069V120.913H70.6989V112.966ZM70.6989 122.503H62.069V130.449H70.6989V122.503ZM60.5 122.503H51.8701V130.449H60.5V122.503ZM50.301 122.503H41.6711V130.449H50.301V122.503ZM40.102 132.039H31.4721V139.986H40.102V132.039ZM50.301 132.039H41.6711V139.986H50.301V132.039ZM60.5 132.039H51.8701V139.986H60.5V132.039ZM70.6989 132.039H62.069V139.986H70.6989V132.039ZM80.8979 132.039H72.268V139.986H80.8979V132.039ZM154.856 130.259C154.221 130.259 153.703 130.473 153.287 130.895C152.871 131.316 152.667 131.856 152.667 132.5V143.252C150.533 141.488 148.07 140.598 145.269 140.598C142.013 140.598 139.228 141.774 136.922 144.134C134.615 146.486 133.47 149.331 133.47 152.669C133.47 156.007 134.623 158.844 136.922 161.204C139.228 163.556 142.005 164.74 145.269 164.74C148.533 164.74 151.279 163.564 153.617 161.204C155.923 158.876 157.068 156.031 157.068 152.669V132.5C157.068 131.856 156.857 131.316 156.425 130.895C155.994 130.473 155.476 130.259 154.856 130.259ZM152.087 155.593C151.702 156.507 151.177 157.31 150.51 157.993C149.843 158.685 149.058 159.225 148.164 159.63C147.262 160.036 146.305 160.234 145.277 160.234C144.249 160.234 143.268 160.036 142.366 159.63C141.464 159.225 140.687 158.685 140.028 158.001C139.369 157.318 138.844 156.515 138.459 155.601C138.075 154.68 137.879 153.702 137.879 152.669C137.879 151.636 138.075 150.658 138.459 149.737C138.844 148.815 139.369 148.02 140.028 147.337C140.687 146.653 141.472 146.113 142.366 145.708C143.268 145.302 144.233 145.104 145.277 145.104C146.32 145.104 147.262 145.302 148.164 145.708C149.066 146.113 149.843 146.653 150.51 147.345C151.177 148.036 151.702 148.839 152.087 149.745C152.471 150.658 152.667 151.628 152.667 152.661C152.667 153.694 152.471 154.672 152.087 155.578V155.593ZM251.307 144.142C248.977 141.79 246.192 140.606 242.96 140.606C239.727 140.606 236.919 141.782 234.612 144.142C232.306 146.494 231.16 149.339 231.16 152.677C231.16 156.015 232.313 158.852 234.612 161.212C236.919 163.564 239.696 164.748 242.96 164.748C245.925 164.748 248.491 163.771 250.672 161.816C251.095 161.371 251.307 160.83 251.307 160.203C251.307 159.575 251.103 159.019 250.687 158.597C250.271 158.176 249.746 157.962 249.118 157.962C248.569 157.978 248.083 158.16 247.667 158.526C247.008 159.098 246.294 159.535 245.517 159.821C244.74 160.107 243.893 160.25 242.967 160.25C242.151 160.25 241.367 160.123 240.622 159.861C239.876 159.599 239.178 159.241 238.558 158.772C237.931 158.303 237.389 157.747 236.926 157.087C236.464 156.436 236.111 155.713 235.875 154.918H252.562C253.182 154.918 253.7 154.703 254.131 154.282C254.563 153.861 254.775 153.321 254.775 152.677C254.775 151.008 254.484 149.458 253.912 148.036C253.339 146.606 252.468 145.31 251.323 144.15L251.307 144.142ZM235.86 150.436C236.087 149.649 236.432 148.926 236.895 148.266C237.358 147.615 237.907 147.051 238.535 146.582C239.17 146.113 239.861 145.755 240.622 145.493C241.383 145.231 242.159 145.104 242.96 145.104C243.76 145.104 244.536 145.231 245.29 145.493C246.043 145.755 246.733 146.113 247.353 146.582C247.981 147.051 248.53 147.607 248.993 148.266C249.463 148.918 249.816 149.641 250.06 150.436H235.86ZM274.419 142.116C274.027 141.726 273.533 141.424 272.937 141.202C272.34 140.979 271.689 140.828 270.975 140.741C270.269 140.653 269.602 140.614 268.983 140.614C267.578 140.614 266.26 140.844 265.021 141.305C263.781 141.766 262.636 142.425 261.584 143.284V142.855C261.584 142.235 261.373 141.71 260.941 141.273C260.51 140.836 260 140.614 259.396 140.614C258.792 140.614 258.258 140.836 257.827 141.273C257.395 141.71 257.183 142.243 257.183 142.855V162.507C257.183 163.127 257.395 163.652 257.827 164.089C258.258 164.526 258.776 164.748 259.396 164.748C260.015 164.748 260.517 164.526 260.941 164.089C261.373 163.652 261.584 163.119 261.584 162.507V152.677C261.584 151.628 261.781 150.643 262.165 149.721C262.549 148.799 263.075 148.004 263.742 147.321C264.409 146.637 265.193 146.097 266.088 145.708C266.99 145.31 267.947 145.112 268.975 145.112C270.003 145.112 270.975 145.294 271.862 145.652C272.215 145.811 272.521 145.89 272.788 145.89C273.094 145.89 273.384 145.835 273.651 145.715C273.917 145.596 274.153 145.437 274.349 145.231C274.545 145.024 274.702 144.786 274.82 144.508C274.937 144.237 275 143.943 275 143.625C275 143.006 274.804 142.505 274.412 142.116H274.419ZM179.718 144.142C177.388 141.79 174.603 140.606 171.371 140.606C168.138 140.606 165.33 141.782 163.023 144.142C160.717 146.494 159.571 149.339 159.571 152.677C159.571 156.015 160.724 158.852 163.023 161.212C165.33 163.564 168.107 164.748 171.371 164.748C174.634 164.748 177.38 163.572 179.718 161.212C182.025 158.883 183.17 156.038 183.17 152.677C183.154 151.008 182.864 149.466 182.299 148.044C181.726 146.621 180.871 145.318 179.718 144.142ZM178.188 155.593C177.804 156.507 177.278 157.31 176.611 157.993C175.944 158.685 175.16 159.225 174.266 159.63C173.371 160.036 172.406 160.234 171.378 160.234C170.351 160.234 169.37 160.036 168.468 159.63C167.566 159.225 166.789 158.685 166.13 158.001C165.471 157.318 164.945 156.515 164.561 155.601C164.176 154.68 163.98 153.702 163.98 152.669C163.98 151.636 164.176 150.658 164.561 149.737C164.945 148.815 165.471 148.02 166.13 147.337C166.789 146.653 167.573 146.113 168.468 145.708C169.37 145.302 170.335 145.104 171.378 145.104C172.422 145.104 173.363 145.302 174.266 145.708C175.168 146.113 175.944 146.653 176.611 147.345C177.278 148.036 177.804 148.839 178.188 149.745C178.573 150.658 178.769 151.628 178.769 152.661C178.769 153.694 178.573 154.672 178.188 155.578V155.593ZM228.775 142.847C228.775 142.545 228.712 142.259 228.595 141.988C228.477 141.718 228.32 141.472 228.124 141.265C227.928 141.059 227.692 140.892 227.426 140.78C227.159 140.669 226.869 140.606 226.563 140.606C226.123 140.606 225.731 140.717 225.386 140.947L212.786 149.331V132.516C212.786 131.88 212.574 131.347 212.143 130.91C211.711 130.473 211.201 130.251 210.597 130.251C209.993 130.251 209.46 130.473 209.028 130.91C208.597 131.347 208.385 131.88 208.385 132.516V162.475C208.385 163.095 208.597 163.628 209.028 164.073C209.46 164.518 209.978 164.74 210.597 164.74C211.217 164.74 211.719 164.518 212.143 164.073C212.574 163.628 212.786 163.095 212.786 162.475V154.695L215.36 152.971L225.096 164.152C225.488 164.542 225.982 164.732 226.571 164.732C226.877 164.732 227.167 164.677 227.434 164.558C227.7 164.446 227.936 164.279 228.132 164.073C228.328 163.866 228.485 163.628 228.603 163.35C228.72 163.079 228.783 162.785 228.783 162.491C228.783 161.903 228.579 161.379 228.171 160.918L219.11 150.484L227.936 144.619C228.501 144.229 228.775 143.633 228.775 142.831V142.847ZM192.192 147.321C192.867 146.637 193.651 146.097 194.554 145.708C195.456 145.31 196.413 145.112 197.441 145.112C198.367 145.112 199.222 145.27 200.014 145.588C200.799 145.906 201.552 146.375 202.266 146.987C202.689 147.329 203.168 147.504 203.701 147.504C204.337 147.504 204.855 147.289 205.27 146.86C205.686 146.431 205.89 145.89 205.89 145.247C205.89 144.603 205.639 144.007 205.129 143.546C202.964 141.591 200.398 140.614 197.441 140.614C194.185 140.614 191.4 141.79 189.093 144.15C186.787 146.502 185.641 149.347 185.641 152.685C185.641 156.023 186.795 158.86 189.093 161.22C191.4 163.572 194.177 164.756 197.441 164.756C200.391 164.756 202.956 163.779 205.129 161.824C205.592 161.347 205.827 160.799 205.827 160.163C205.827 159.527 205.623 158.979 205.208 158.558C204.792 158.136 204.266 157.922 203.639 157.922C203.105 157.938 202.642 158.097 202.25 158.399C201.544 159.019 200.806 159.479 200.014 159.789C199.229 160.099 198.374 160.25 197.441 160.25C196.413 160.25 195.456 160.052 194.554 159.654C193.651 159.257 192.867 158.717 192.192 158.041C191.517 157.366 190.984 156.555 190.6 155.641C190.215 154.719 190.019 153.734 190.019 152.685C190.019 151.636 190.215 150.65 190.6 149.729C190.984 148.807 191.517 148.012 192.192 147.329V147.321Z" fill="#1D63ED"></path><rect x="0.5" y="1.46631" width="299" height="281.983" rx="23.5" stroke="#E1E2E6"></rect></svg> 